<svg width="24" height="25" viewBox="0 0 24 25" fill="none" xmlns="http://www.w3.org/2000/svg">
<path d="M5 20.75H19V22.75H5V20.75ZM12 18.75C9.87827 18.75 7.84344 17.9071 6.34315 16.4069C4.84285 14.9066 4 12.8717 4 10.75C4 8.62827 4.84285 6.59344 6.34315 5.09315C7.84344 3.59285 9.87827 2.75 12 2.75C14.1217 2.75 16.1566 3.59285 17.6569 5.09315C19.1571 6.59344 20 8.62827 20 10.75C20 12.8717 19.1571 14.9066 17.6569 16.4069C16.1566 17.9071 14.1217 18.75 12 18.75ZM12 16.75C13.5913 16.75 15.1174 16.1179 16.2426 14.9926C17.3679 13.8674 18 12.3413 18 10.75C18 9.1587 17.3679 7.63258 16.2426 6.50736C15.1174 5.38214 13.5913 4.75 12 4.75C10.4087 4.75 8.88258 5.38214 7.75736 6.50736C6.63214 7.63258 6 9.1587 6 10.75C6 12.3413 6.63214 13.8674 7.75736 14.9926C8.88258 16.1179 10.4087 16.75 12 16.75Z" fill="#666666"/>
</svg>
