<svg width="32" height="33" viewBox="0 0 32 33" fill="none" xmlns="http://www.w3.org/2000/svg">
<path d="M13.104 7.16667L10.4373 9.83333H5.33333V25.8333H26.6667V9.83333H21.5627L18.896 7.16667H13.104ZM12 4.5H20L22.6667 7.16667H28C28.3536 7.16667 28.6928 7.30714 28.9428 7.55719C29.1929 7.80724 29.3333 8.14638 29.3333 8.5V27.1667C29.3333 27.5203 29.1929 27.8594 28.9428 28.1095C28.6928 28.3595 28.3536 28.5 28 28.5H4C3.64638 28.5 3.30724 28.3595 3.05719 28.1095C2.80714 27.8594 2.66667 27.5203 2.66667 27.1667V8.5C2.66667 8.14638 2.80714 7.80724 3.05719 7.55719C3.30724 7.30714 3.64638 7.16667 4 7.16667H9.33333L12 4.5ZM16 24.5C14.0551 24.5 12.1898 23.7274 10.8145 22.3521C9.43928 20.9769 8.66667 19.1116 8.66667 17.1667C8.66667 15.2217 9.43928 13.3565 10.8145 11.9812C12.1898 10.6059 14.0551 9.83333 16 9.83333C17.9449 9.83333 19.8102 10.6059 21.1854 11.9812C22.5607 13.3565 23.3333 15.2217 23.3333 17.1667C23.3333 19.1116 22.5607 20.9769 21.1854 22.3521C19.8102 23.7274 17.9449 24.5 16 24.5ZM16 21.8333C17.2377 21.8333 18.4247 21.3417 19.2998 20.4665C20.175 19.5913 20.6667 18.4043 20.6667 17.1667C20.6667 15.929 20.175 14.742 19.2998 13.8668C18.4247 12.9917 17.2377 12.5 16 12.5C14.7623 12.5 13.5753 12.9917 12.7002 13.8668C11.825 14.742 11.3333 15.929 11.3333 17.1667C11.3333 18.4043 11.825 19.5913 12.7002 20.4665C13.5753 21.3417 14.7623 21.8333 16 21.8333Z" fill="#666666"/>
</svg>
