<svg width="25" height="24" viewBox="0 0 25 24" fill="none" xmlns="http://www.w3.org/2000/svg">
<path d="M10.328 5L8.328 7H4.5V19H20.5V7H16.672L14.672 5H10.328ZM9.5 3H15.5L17.5 5H21.5C21.7652 5 22.0196 5.10536 22.2071 5.29289C22.3946 5.48043 22.5 5.73478 22.5 6V20C22.5 20.2652 22.3946 20.5196 22.2071 20.7071C22.0196 20.8946 21.7652 21 21.5 21H3.5C3.23478 21 2.98043 20.8946 2.79289 20.7071C2.60536 20.5196 2.5 20.2652 2.5 20V6C2.5 5.73478 2.60536 5.48043 2.79289 5.29289C2.98043 5.10536 3.23478 5 3.5 5H7.5L9.5 3ZM10.14 7.53C11.3181 6.96925 12.6572 6.84558 13.9181 7.18108C15.1789 7.51658 16.2795 8.28941 17.0231 9.36151C17.7667 10.4336 18.105 11.7351 17.9775 13.0336C17.8499 14.3322 17.265 15.543 16.327 16.45L14.25 12.6H15.999L16 12.5C16.0001 11.9162 15.8542 11.3417 15.5755 10.8287C15.2968 10.3157 14.8942 9.88058 14.4044 9.56293C13.9146 9.24527 13.3532 9.05518 12.7711 9.00995C12.1891 8.96473 11.605 9.06581 11.072 9.304L10.14 7.53ZM14.817 17.49C13.6417 18.0369 12.3111 18.1512 11.0598 17.8126C9.80849 17.474 8.71701 16.7043 7.97793 15.6393C7.23886 14.5744 6.89969 13.2826 7.02027 11.9919C7.14086 10.7012 7.71344 9.49463 8.637 8.585L10.75 12.5H9C8.99981 13.08 9.14375 13.6509 9.41886 14.1614C9.69397 14.672 10.0916 15.1061 10.5761 15.4249C11.0606 15.7437 11.6167 15.9371 12.1944 15.9878C12.7722 16.0384 13.3535 15.9447 13.886 15.715L14.817 17.49Z" fill="white"/>
</svg>
