<svg width="24" height="25" viewBox="0 0 24 25" fill="none" xmlns="http://www.w3.org/2000/svg">
<path d="M13 19.75H19V10.728L12 5.28403L5 10.728V19.75H11V13.75H13V19.75ZM21 20.75C21 21.0152 20.8946 21.2696 20.7071 21.4571C20.5196 21.6447 20.2652 21.75 20 21.75H4C3.73478 21.75 3.48043 21.6447 3.29289 21.4571C3.10536 21.2696 3 21.0152 3 20.75V10.24C2.99989 10.0876 3.03462 9.93724 3.10152 9.80033C3.16841 9.66341 3.26572 9.54359 3.386 9.45003L11.386 3.22803C11.5615 3.09147 11.7776 3.01733 12 3.01733C12.2224 3.01733 12.4385 3.09147 12.614 3.22803L20.614 9.45003C20.7343 9.54359 20.8316 9.66341 20.8985 9.80033C20.9654 9.93724 21.0001 10.0876 21 10.24V20.75Z" fill="#666666"/>
</svg>
