<svg width="24" height="25" viewBox="0 0 24 25" fill="none" xmlns="http://www.w3.org/2000/svg">
<path d="M20.243 5.50698C22.505 7.77498 22.583 11.387 20.479 13.743L11.999 22.235L3.52101 13.743C1.41701 11.387 1.49601 7.76898 3.75701 5.50698C6.02201 3.24298 9.64501 3.16698 12.001 5.27898C14.35 3.16998 17.98 3.23998 20.243 5.50698ZM5.17201 6.92198C3.68201 8.41198 3.60701 10.797 4.98001 12.373L12 19.404L19.02 12.374C20.394 10.797 20.319 8.41498 18.827 6.91998C17.34 5.42998 14.946 5.35798 13.374 6.73398L9.17201 10.937L7.75701 9.52298L10.582 6.69598L10.5 6.62698C8.92501 5.36198 6.62301 5.46998 5.17201 6.92198Z" fill="#666666"/>
</svg>
