<svg width="28" height="28" viewBox="0 0 28 28" fill="none" xmlns="http://www.w3.org/2000/svg">
<g clip-path="url(#clip0_44_2765)">
<rect width="28" height="28" rx="14" fill="white"/>
<path d="M14 25.6666C7.55654 25.6666 2.33337 20.4434 2.33337 13.9999C2.33337 7.55642 7.55654 2.33325 14 2.33325C20.4435 2.33325 25.6667 7.55642 25.6667 13.9999C25.6667 20.4434 20.4435 25.6666 14 25.6666ZM8.16671 13.9999C8.16671 15.547 8.78129 17.0307 9.87525 18.1247C10.9692 19.2187 12.4529 19.8333 14 19.8333C15.5471 19.8333 17.0309 19.2187 18.1248 18.1247C19.2188 17.0307 19.8334 15.547 19.8334 13.9999H17.5C17.5 14.9282 17.1313 15.8184 16.4749 16.4748C15.8185 17.1312 14.9283 17.4999 14 17.4999C13.0718 17.4999 12.1815 17.1312 11.5252 16.4748C10.8688 15.8184 10.5 14.9282 10.5 13.9999H8.16671Z" fill="black"/>
</g>
<rect x="0.25" y="0.25" width="27.5" height="27.5" rx="13.75" stroke="#E0E0E0" stroke-width="0.5"/>
<defs>
<clipPath id="clip0_44_2765">
<rect width="28" height="28" rx="14" fill="white"/>
</clipPath>
</defs>
</svg>
