<svg width="32" height="32" viewBox="0 0 32 32" fill="none" xmlns="http://www.w3.org/2000/svg">
<path d="M16 2.66675C23.364 2.66675 29.3333 8.63608 29.3333 16.0001C29.3333 16.9694 29.2307 17.9134 29.0333 18.8241L26.6573 16.4467C26.7552 14.1064 26.0799 11.799 24.7358 9.88058C23.3917 7.9622 21.4535 6.5396 19.2205 5.83238C16.9874 5.12516 14.5836 5.17266 12.3803 5.96753C10.1769 6.76241 8.29641 8.26047 7.02915 10.2304C5.76189 12.2004 5.17832 14.5328 5.36852 16.8674C5.55872 19.202 6.51212 21.4092 8.08154 23.148C9.65095 24.8869 11.7491 26.0608 14.0521 26.4886C16.3551 26.9163 18.7348 26.5741 20.824 25.5147C21.3329 26.3213 22.0489 26.9765 22.8973 27.4121C20.8176 28.6722 18.4317 29.3368 16 29.3334C8.63599 29.3334 2.66666 23.3641 2.66666 16.0001C2.66666 8.63608 8.63599 2.66675 16 2.66675ZM25.3333 18.8961L27.2187 20.7814C27.5857 21.1483 27.8377 21.6143 27.9437 22.1223C28.0498 22.6302 28.0054 23.1581 27.8159 23.6412C27.6263 24.1243 27.3 24.5416 26.8768 24.842C26.4536 25.1423 25.952 25.3127 25.4334 25.3322C24.9148 25.3516 24.4019 25.2194 23.9573 24.9516C23.5128 24.6838 23.1561 24.2922 22.9309 23.8246C22.7057 23.3571 22.6218 22.834 22.6895 22.3195C22.7572 21.805 22.9735 21.3214 23.312 20.9281L23.448 20.7814L25.3333 18.8961ZM16 20.0001C17.9547 20.0001 19.7133 20.8414 20.9333 22.1827L19.6733 23.3294C18.62 22.9094 17.3573 22.6667 16 22.6667C14.6427 22.6667 13.38 22.9107 12.3267 23.3281L11.0667 22.1814C11.6909 21.4933 12.4525 20.9437 13.3022 20.568C14.1519 20.1923 15.0709 19.9988 16 20.0001ZM11.3333 13.3334C11.8638 13.3334 12.3725 13.5441 12.7475 13.9192C13.1226 14.2943 13.3333 14.803 13.3333 15.3334C13.3333 15.8638 13.1226 16.3726 12.7475 16.7476C12.3725 17.1227 11.8638 17.3334 11.3333 17.3334C10.8029 17.3334 10.2942 17.1227 9.91911 16.7476C9.54404 16.3726 9.33332 15.8638 9.33332 15.3334C9.33332 14.803 9.54404 14.2943 9.91911 13.9192C10.2942 13.5441 10.8029 13.3334 11.3333 13.3334ZM20.6667 13.3334C21.1971 13.3334 21.7058 13.5441 22.0809 13.9192C22.4559 14.2943 22.6667 14.803 22.6667 15.3334C22.6667 15.8638 22.4559 16.3726 22.0809 16.7476C21.7058 17.1227 21.1971 17.3334 20.6667 17.3334C20.1362 17.3334 19.6275 17.1227 19.2524 16.7476C18.8774 16.3726 18.6667 15.8638 18.6667 15.3334C18.6667 14.803 18.8774 14.2943 19.2524 13.9192C19.6275 13.5441 20.1362 13.3334 20.6667 13.3334Z" fill="#666666"/>
</svg>
