<svg width="24" height="25" viewBox="0 0 24 25" fill="none" xmlns="http://www.w3.org/2000/svg">
<path d="M4.92901 3.67896L6.34301 5.09296C5.59904 5.83503 5.00906 6.71682 4.60697 7.68763C4.20488 8.65845 3.99861 9.69916 4.00001 10.75C4.00001 12.96 4.89501 14.96 6.34301 16.407L4.93001 17.82C3.99998 16.8926 3.26237 15.7906 2.75954 14.5773C2.25672 13.364 1.9986 12.0633 2.00001 10.75C1.99833 9.43649 2.25623 8.13565 2.75889 6.92217C3.26154 5.70869 3.99904 4.60651 4.92901 3.67896ZM19.071 3.67896C20.001 4.60651 20.7385 5.70869 21.2411 6.92217C21.7438 8.13565 22.0017 9.43649 22 10.75C22.0017 12.0634 21.7438 13.3643 21.2411 14.5777C20.7385 15.7912 20.001 16.8934 19.071 17.821L17.657 16.407C18.401 15.6649 18.991 14.7831 19.393 13.8123C19.7951 12.8415 20.0014 11.8007 20 10.75C20 8.53996 19.105 6.53996 17.657 5.09296L19.07 3.67996L19.071 3.67896ZM7.75701 6.50696L9.17201 7.92196C8.79997 8.29288 8.50491 8.73367 8.30378 9.21899C8.10264 9.70431 7.99941 10.2246 8.00001 10.75C8.00001 11.855 8.44801 12.855 9.17201 13.578L7.75701 14.993C7.19904 14.4364 6.75657 13.775 6.45504 13.0468C6.15352 12.3186 5.99888 11.5381 6.00001 10.75C6.00001 9.09296 6.67201 7.59296 7.75701 6.50696ZM16.243 6.50696C16.801 7.06355 17.2434 7.72494 17.545 8.4531C17.8465 9.18126 18.0011 9.96183 18 10.75C18.0011 11.5381 17.8465 12.3186 17.545 13.0468C17.2434 13.775 16.801 14.4364 16.243 14.993L14.828 13.578C15.2 13.207 15.4951 12.7662 15.6962 12.2809C15.8974 11.7956 16.0006 11.2753 16 10.75C16.0006 10.2246 15.8974 9.70431 15.6962 9.21899C15.4951 8.73367 15.2 8.29288 14.828 7.92196L16.243 6.50696ZM12 12.75C11.4696 12.75 10.9609 12.5392 10.5858 12.1642C10.2107 11.7891 10 11.2804 10 10.75C10 10.2195 10.2107 9.71081 10.5858 9.33574C10.9609 8.96067 11.4696 8.74996 12 8.74996C12.5304 8.74996 13.0391 8.96067 13.4142 9.33574C13.7893 9.71081 14 10.2195 14 10.75C14 11.2804 13.7893 11.7891 13.4142 12.1642C13.0391 12.5392 12.5304 12.75 12 12.75ZM12 14.75C12.58 14.75 13.077 15.163 13.184 15.733L14.5 22.75H9.50001L10.816 15.733C10.923 15.163 11.42 14.75 12 14.75Z" fill="#666666"/>
</svg>
