<svg width="28" height="28" viewBox="0 0 28 28" fill="none" xmlns="http://www.w3.org/2000/svg">
<path d="M14 25.6666C7.55648 25.6666 2.33331 20.4435 2.33331 14C2.33331 7.55648 7.55648 2.33331 14 2.33331C20.4435 2.33331 25.6666 7.55648 25.6666 14C25.6666 20.4435 20.4435 25.6666 14 25.6666ZM8.16665 14C8.16665 15.5471 8.78123 17.0308 9.87519 18.1248C10.9692 19.2187 12.4529 19.8333 14 19.8333C15.5471 19.8333 17.0308 19.2187 18.1248 18.1248C19.2187 17.0308 19.8333 15.5471 19.8333 14H17.5C17.5 14.9282 17.1312 15.8185 16.4749 16.4749C15.8185 17.1312 14.9282 17.5 14 17.5C13.0717 17.5 12.1815 17.1312 11.5251 16.4749C10.8687 15.8185 10.5 14.9282 10.5 14H8.16665Z" fill="white"/>
</svg>
