<svg width="512" height="512" viewBox="0 0 512 512" fill="none" xmlns="http://www.w3.org/2000/svg">
<rect width="512" height="512" rx="128" fill="#1A1B1F"/>
<path d="M165.4 195.805V316H143.818L91.0254 239.633H90.0293V316H65.127V195.805H87.041L139.502 272.172H140.664V195.805H165.4ZM180.84 290.766C180.923 270.678 197.026 264.12 214.375 263.041C220.85 262.626 232.969 262.045 236.787 261.879V254.574C236.704 247.021 231.558 242.704 222.344 242.621C213.96 242.704 208.73 246.439 207.402 252.582H183.994C185.488 236.977 199.102 224.691 223.008 224.691C242.681 224.691 261.274 233.49 261.191 255.238V316H237.949V303.549H237.285C232.886 311.85 224.253 317.743 210.889 317.66C193.623 317.743 180.923 308.612 180.84 290.766ZM204.414 290.102C204.414 296.991 209.976 300.644 217.861 300.727C229.067 300.644 236.87 293.339 236.787 283.793V277.235C233.052 277.401 222.51 277.982 218.359 278.314C209.81 279.062 204.414 283.129 204.414 290.102ZM279.951 316V225.854H304.521V316H279.951ZM278.789 201.615C278.789 194.643 284.849 189.081 292.236 188.998C299.541 189.081 305.601 194.643 305.518 201.615C305.601 208.422 299.541 214.066 292.236 214.066C284.849 214.066 278.789 208.422 278.789 201.615ZM348.184 195.805V316H323.613V195.805H348.184ZM407.783 317.826C380.557 317.743 363.54 299.066 363.623 271.176C363.54 243.368 380.557 224.691 407.783 224.691C435.093 224.691 452.026 243.368 452.109 271.176C452.026 299.066 435.093 317.743 407.783 317.826ZM388.525 271.176C388.525 286.947 395.083 298.651 407.949 298.734C420.483 298.651 427.124 286.947 427.041 271.176C427.124 255.321 420.483 243.451 407.949 243.451C395.083 243.451 388.525 255.321 388.525 271.176Z" fill="white"/>
</svg>
